<svg width="28" height="28" viewBox="0 0 28 28" fill="none" xmlns="http://www.w3.org/2000/svg">
<path d="M12.5417 5.41335L7.37334 2.85835C4.58501 1.49335 2.29834 2.88169 2.29834 5.93835V23.2517C2.29834 24.5817 3.40667 25.6667 4.76001 25.6667H13.4167C14.0583 25.6667 14.5833 25.1417 14.5833 24.5V8.64502C14.5833 7.42002 13.6617 5.96169 12.5417 5.41335ZM10.465 16.0417H6.41667C5.93834 16.0417 5.54167 15.645 5.54167 15.1667C5.54167 14.6884 5.93834 14.2917 6.41667 14.2917H10.465C10.9433 14.2917 11.34 14.6884 11.34 15.1667C11.34 15.645 10.955 16.0417 10.465 16.0417ZM10.465 11.375H6.41667C5.93834 11.375 5.54167 10.9784 5.54167 10.5C5.54167 10.0217 5.93834 9.62502 6.41667 9.62502H10.465C10.9433 9.62502 11.34 10.0217 11.34 10.5C11.34 10.9784 10.955 11.375 10.465 11.375Z" fill="#2382A0"/>
<path d="M25.6667 21.0467V22.75C25.6667 24.36 24.36 25.6667 22.75 25.6667H17.465C16.835 25.6667 16.3334 25.165 16.3334 24.535V22.015C17.5817 22.1667 18.9 21.805 19.845 21.0467C20.6384 21.6884 21.6534 22.0734 22.7617 22.0734C23.8467 22.0734 24.8617 21.6884 25.6667 21.0467Z" fill="#2382A0"/>
<path d="M25.6667 17.5583V17.57C25.5734 19.0983 24.325 20.3233 22.7617 20.3233C21.14 20.3233 19.845 19.005 19.845 17.4067C19.845 19.1917 18.2 20.6267 16.3334 20.265V14C16.3334 13.2533 17.0217 12.6933 17.7567 12.8567L19.845 13.3233L20.405 13.4517L22.785 13.9883C23.3567 14.105 23.8817 14.3033 24.3367 14.595C24.3367 14.6067 24.3484 14.6067 24.3484 14.6067C24.465 14.6883 24.5817 14.7817 24.6867 14.8867C25.2234 15.4233 25.5734 16.205 25.655 17.3483C25.655 17.4183 25.6667 17.4883 25.6667 17.5583Z" fill="#2382A0"/>
</svg>
