<svg width="28" height="28" viewBox="0 0 28 28" fill="none" xmlns="http://www.w3.org/2000/svg">
<path d="M24.7916 14.875C25.2816 14.875 25.6666 14.4783 25.6666 14C25.6666 13.51 25.2816 13.125 24.7916 13.125H23.3333V10.5583H24.7916C25.2816 10.5583 25.6666 10.1733 25.6666 9.68331C25.6666 9.20498 25.2816 8.80831 24.7916 8.80831H23.065C22.505 6.95331 21.0466 5.49498 19.1916 4.93498V3.20831C19.1916 2.72998 18.795 2.33331 18.3166 2.33331C17.8383 2.33331 17.4416 2.72998 17.4416 3.20831V4.66665H14.875V3.20831C14.875 2.72998 14.4783 2.33331 14 2.33331C13.5216 2.33331 13.125 2.72998 13.125 3.20831V4.66665H10.57V3.20831C10.57 2.72998 10.1733 2.33331 9.69498 2.33331C9.20498 2.33331 8.81998 2.72998 8.81998 3.20831V4.93498C6.95331 5.49498 5.49498 6.95331 4.93498 8.80831H3.20831C2.72998 8.80831 2.33331 9.20498 2.33331 9.68331C2.33331 10.1733 2.72998 10.5583 3.20831 10.5583H4.66665V13.125H3.20831C2.72998 13.125 2.33331 13.51 2.33331 14C2.33331 14.4783 2.72998 14.875 3.20831 14.875H4.66665V17.4416H3.20831C2.72998 17.4416 2.33331 17.8266 2.33331 18.3166C2.33331 18.795 2.72998 19.1916 3.20831 19.1916H4.93498C5.48331 21.0466 6.95331 22.505 8.81998 23.065V24.7916C8.81998 25.27 9.20498 25.6666 9.69498 25.6666C10.1733 25.6666 10.57 25.27 10.57 24.7916V23.3333H13.1366V24.7916C13.1366 25.27 13.5216 25.6666 14.0116 25.6666C14.49 25.6666 14.8866 25.27 14.8866 24.7916V23.3333H17.4416V24.7916C17.4416 25.27 17.8383 25.6666 18.3166 25.6666C18.795 25.6666 19.1916 25.27 19.1916 24.7916V23.065C21.0466 22.505 22.505 21.0466 23.065 19.1916H24.7916C25.2816 19.1916 25.6666 18.795 25.6666 18.3166C25.6666 17.8266 25.2816 17.4416 24.7916 17.4416H23.3333V14.875H24.7916ZM20.1366 16.6366C20.1366 18.5616 18.5616 20.1366 16.6366 20.1366H11.3633C9.43831 20.1366 7.86331 18.5616 7.86331 16.6366V11.3633C7.86331 9.43831 9.43831 7.86331 11.3633 7.86331H16.6366C18.5616 7.86331 20.1366 9.43831 20.1366 11.3633V16.6366Z" fill="#2382A0"/>
<path d="M11.69 18.9584H16.3217C17.78 18.9584 18.97 17.78 18.97 16.31V11.6784C18.97 10.22 17.7917 9.03003 16.3217 9.03003H11.69C10.2317 9.03003 9.04169 10.2084 9.04169 11.6784V16.31C9.04169 17.78 10.22 18.9584 11.69 18.9584Z" fill="#2382A0"/>
</svg>
