<svg width="28" height="28" viewBox="0 0 28 28" fill="none" xmlns="http://www.w3.org/2000/svg">
<path d="M10.5 2.33331C7.44334 2.33331 4.95834 4.81831 4.95834 7.87498C4.95834 10.8733 7.30334 13.3 10.36 13.405C10.4533 13.3933 10.5467 13.3933 10.6167 13.405C10.64 13.405 10.6517 13.405 10.675 13.405C10.6867 13.405 10.6867 13.405 10.6983 13.405C13.685 13.3 16.03 10.8733 16.0417 7.87498C16.0417 4.81831 13.5567 2.33331 10.5 2.33331Z" fill="#2382A0"/>
<path d="M16.4267 16.5084C13.1717 14.3384 7.86333 14.3384 4.585 16.5084C3.10333 17.5 2.28667 18.8417 2.28667 20.2767C2.28667 21.7117 3.10333 23.0417 4.57333 24.0217C6.20667 25.1184 8.35333 25.6667 10.5 25.6667C12.6467 25.6667 14.7933 25.1184 16.4267 24.0217C17.8967 23.03 18.7133 21.7 18.7133 20.2534C18.7017 18.8184 17.8967 17.4884 16.4267 16.5084Z" fill="#2382A0"/>
<path d="M23.3217 8.56331C23.5083 10.8266 21.8983 12.81 19.67 13.0783C19.6583 13.0783 19.6583 13.0783 19.6467 13.0783H19.6117C19.5417 13.0783 19.4717 13.0783 19.4133 13.1016C18.2817 13.16 17.2433 12.7983 16.4617 12.1333C17.6633 11.06 18.3517 9.44997 18.2117 7.69997C18.13 6.75497 17.8033 5.89164 17.3133 5.15664C17.7567 4.93497 18.27 4.79497 18.795 4.74831C21.0817 4.54997 23.1233 6.25331 23.3217 8.56331Z" fill="#2382A0"/>
<path d="M25.655 19.355C25.5617 20.4867 24.8383 21.4667 23.625 22.1317C22.4583 22.7733 20.9883 23.0767 19.53 23.0417C20.37 22.2833 20.86 21.3383 20.9533 20.335C21.07 18.8883 20.3817 17.5 19.005 16.3917C18.2233 15.7733 17.3133 15.2833 16.3217 14.9217C18.9 14.175 22.1433 14.6767 24.1383 16.2867C25.2117 17.15 25.76 18.235 25.655 19.355Z" fill="#2382A0"/>
</svg>
